<svg width="48" height="45" viewBox="0 0 48 45" fill="none" xmlns="http://www.w3.org/2000/svg">
<path d="M24 9.80844C24 9.43681 24.158 9.08041 24.4393 8.81763C24.7206 8.55485 25.1022 8.40723 25.5 8.40723C25.8978 8.40723 26.2794 8.55485 26.5607 8.81763C26.842 9.08041 27 9.43681 27 9.80844V25.2217C26.9999 25.4687 26.9299 25.7113 26.7972 25.9249C26.6644 26.1385 26.4736 26.3155 26.244 26.438L15.744 32.0428C15.3994 32.2168 14.9957 32.2579 14.619 32.1575C14.2424 32.0571 13.9228 31.823 13.7285 31.5053C13.5341 31.1876 13.4805 30.8116 13.5791 30.4575C13.6777 30.1033 13.9206 29.7993 14.256 29.6103L24 24.409V9.80844Z" fill="#FCFAF1"/>
<path d="M24 44.8387C17.6348 44.8387 11.5303 42.4766 7.02944 38.2722C2.52856 34.0678 0 28.3653 0 22.4193C0 16.4734 2.52856 10.7709 7.02944 6.56647C11.5303 2.36203 17.6348 0 24 0C30.3652 0 36.4697 2.36203 40.9706 6.56647C45.4714 10.7709 48 16.4734 48 22.4193C48 28.3653 45.4714 34.0678 40.9706 38.2722C36.4697 42.4766 30.3652 44.8387 24 44.8387ZM3 22.4193C3 27.6221 5.21249 32.6117 9.15076 36.2906C13.089 39.9695 18.4305 42.0363 24 42.0363C29.5695 42.0363 34.911 39.9695 38.8492 36.2906C42.7875 32.6117 45 27.6221 45 22.4193C45 17.2166 42.7875 12.227 38.8492 8.54808C34.911 4.86919 29.5695 2.80242 24 2.80242C18.4305 2.80242 13.089 4.86919 9.15076 8.54808C5.21249 12.227 3 17.2166 3 22.4193Z" fill="#FCFAF1"/>
</svg>
