<svg width="48" height="40" viewBox="0 0 48 40" fill="none" xmlns="http://www.w3.org/2000/svg">
<path d="M10.9631 4.21529C10.786 4.03086 10.5624 3.87904 10.3073 3.76993C10.0522 3.66081 9.77127 3.5969 9.48327 3.58242C9.19528 3.56795 8.90678 3.60326 8.63693 3.68599C8.36709 3.76872 8.12207 3.89699 7.91816 4.06228L4.81626 6.57599C3.36731 7.75148 2.83332 9.41514 3.4663 10.8748C6.09641 16.9152 10.3696 22.4 15.9699 26.9237C21.5575 31.4577 28.3322 34.9172 35.7933 37.0465C37.5962 37.5589 39.6512 37.1266 41.1031 35.9536L44.205 33.4423C44.4092 33.2772 44.5676 33.0788 44.6698 32.8604C44.772 32.6419 44.8156 32.4083 44.7977 32.1752C44.7799 31.942 44.7009 31.7146 44.5661 31.5081C44.4314 31.3015 44.2438 31.1205 44.016 30.9772L37.0953 26.6201C36.8517 26.4676 36.5686 26.3617 36.2673 26.3104C35.9659 26.2591 35.6541 26.2636 35.3553 26.3238L28.7855 27.6523C27.9085 27.8285 26.9902 27.8185 26.1193 27.6232C25.2485 27.4279 24.4547 27.0539 23.8147 26.5375L16.4469 20.5702C15.8085 20.0523 15.346 19.4097 15.1042 18.7047C14.8625 17.9997 14.8496 17.256 15.0669 16.5458L16.7109 11.227C16.7852 10.985 16.7908 10.7326 16.7274 10.4886C16.6641 10.2447 16.5333 10.0155 16.3449 9.81831L10.9631 4.21529ZM5.65324 2.23104C6.1782 1.8059 6.80888 1.47603 7.5034 1.26335C8.19791 1.05067 8.94036 0.960045 9.68145 0.997486C10.4225 1.03493 11.1453 1.19958 11.8018 1.48052C12.4583 1.76145 13.0334 2.15223 13.489 2.62692L18.8708 8.22751C19.8578 9.25485 20.2058 10.5931 19.8158 11.856L18.1748 17.1748C18.0906 17.4504 18.0955 17.7388 18.189 18.0123C18.2825 18.2859 18.4616 18.5353 18.7088 18.7365L26.0796 24.7038C26.3284 24.9044 26.637 25.0496 26.9755 25.1253C27.3139 25.2011 27.6708 25.2048 28.0115 25.1361L34.5783 23.8076C35.3482 23.6527 36.1515 23.6411 36.9278 23.7736C37.704 23.9061 38.4331 24.1793 39.0602 24.5727L45.978 28.9298C48.4649 30.4963 48.6929 33.4714 46.467 35.2711L43.3651 37.7824C41.1451 39.5796 37.8272 40.3689 34.7343 39.4873C26.8166 37.2349 19.6284 33.5656 13.705 28.7525C7.76029 23.9576 3.22797 18.139 0.445399 11.7297C-0.640567 9.22813 0.334402 6.53956 2.55433 4.74232L5.65324 2.23104Z" fill="#FCFAF1"/>
</svg>
