<svg width="32" height="28" viewBox="0 0 32 28" fill="none" xmlns="http://www.w3.org/2000/svg">
<path d="M9.28 0H22.72C27.84 0 32 3.64 32 8.12V19.88C32 22.0336 31.0223 24.0989 29.282 25.6217C27.5416 27.1445 25.1812 28 22.72 28H9.28C4.16 28 0 24.36 0 19.88V8.12C0 5.96644 0.977712 3.90109 2.71805 2.37829C4.45839 0.855498 6.81879 0 9.28 0ZM8.96 2.8C7.43235 2.8 5.96727 3.331 4.88707 4.27618C3.80686 5.22137 3.2 6.50331 3.2 7.84V20.16C3.2 22.946 5.776 25.2 8.96 25.2H23.04C24.5676 25.2 26.0327 24.669 27.1129 23.7238C28.1931 22.7786 28.8 21.4967 28.8 20.16V7.84C28.8 5.054 26.224 2.8 23.04 2.8H8.96ZM24.4 4.9C24.9304 4.9 25.4391 5.08437 25.8142 5.41256C26.1893 5.74075 26.4 6.18587 26.4 6.65C26.4 7.11413 26.1893 7.55925 25.8142 7.88744C25.4391 8.21563 24.9304 8.4 24.4 8.4C23.8696 8.4 23.3609 8.21563 22.9858 7.88744C22.6107 7.55925 22.4 7.11413 22.4 6.65C22.4 6.18587 22.6107 5.74075 22.9858 5.41256C23.3609 5.08437 23.8696 4.9 24.4 4.9ZM16 7C18.1217 7 20.1566 7.7375 21.6569 9.05025C23.1571 10.363 24 12.1435 24 14C24 15.8565 23.1571 17.637 21.6569 18.9497C20.1566 20.2625 18.1217 21 16 21C13.8783 21 11.8434 20.2625 10.3431 18.9497C8.84285 17.637 8 15.8565 8 14C8 12.1435 8.84285 10.363 10.3431 9.05025C11.8434 7.7375 13.8783 7 16 7ZM16 9.8C14.727 9.8 13.5061 10.2425 12.6059 11.0302C11.7057 11.8178 11.2 12.8861 11.2 14C11.2 15.1139 11.7057 16.1822 12.6059 16.9698C13.5061 17.7575 14.727 18.2 16 18.2C17.273 18.2 18.4939 17.7575 19.3941 16.9698C20.2943 16.1822 20.8 15.1139 20.8 14C20.8 12.8861 20.2943 11.8178 19.3941 11.0302C18.4939 10.2425 17.273 9.8 16 9.8Z" fill="black"/>
</svg>
