<svg width="60" height="60" viewBox="0 0 60 60" fill="none" xmlns="http://www.w3.org/2000/svg">
<path d="M18.75 13.75C18.75 10.7663 19.9353 7.90483 22.045 5.79505C24.1548 3.68526 27.0163 2.5 30 2.5C32.9837 2.5 35.8452 3.68526 37.955 5.79505C40.0647 7.90483 41.25 10.7663 41.25 13.75V17.5H52.5V57.5H7.5V17.5H18.75V13.75ZM18.75 22.5H12.5V52.5H47.5V22.5H41.25V30H36.25V22.5H23.75V30H18.75V22.5ZM36.25 17.5V13.75C36.25 12.0924 35.5915 10.5027 34.4194 9.33058C33.2473 8.15848 31.6576 7.5 30 7.5C28.3424 7.5 26.7527 8.15848 25.5806 9.33058C24.4085 10.5027 23.75 12.0924 23.75 13.75V17.5H36.25Z" fill="black"/>
</svg>
