<svg width="33" height="20" viewBox="0 0 33 20" fill="none" xmlns="http://www.w3.org/2000/svg">
<path d="M13.2 14.0714L21.7635 10L13.2 5.92857V14.0714ZM32.274 3.445C32.4885 4.08286 32.637 4.93786 32.736 6.02357C32.8515 7.10929 32.901 8.04571 32.901 8.86L33 10C33 12.9721 32.736 15.1571 32.274 16.555C31.8615 17.7764 30.9045 18.5636 29.4195 18.9029C28.644 19.0793 27.225 19.2014 25.047 19.2829C22.902 19.3779 20.9385 19.4186 19.1235 19.4186L16.5 19.5C9.5865 19.5 5.28 19.2829 3.5805 18.9029C2.0955 18.5636 1.1385 17.7764 0.726 16.555C0.5115 15.9171 0.363 15.0621 0.264 13.9764C0.1485 12.8907 0.0989999 11.9543 0.0989999 11.14L0 10C0 7.02786 0.264 4.84286 0.726 3.445C1.1385 2.22357 2.0955 1.43643 3.5805 1.09714C4.356 0.920714 5.775 0.798571 7.953 0.717143C10.098 0.622143 12.0615 0.581428 13.8765 0.581428L16.5 0.5C23.4135 0.5 27.72 0.717143 29.4195 1.09714C30.9045 1.43643 31.8615 2.22357 32.274 3.445Z" fill="black"/>
</svg>
