<svg width="32" height="41" viewBox="0 0 32 41" fill="none" xmlns="http://www.w3.org/2000/svg">
<path fill-rule="evenodd" clip-rule="evenodd" d="M17.2229 38.8962L17.2005 38.9003L17.0563 38.9714L17.0156 38.9795L16.9872 38.9714L16.8429 38.9003C16.8212 38.8935 16.8049 38.8969 16.7941 38.9104L16.786 38.9308L16.7514 39.8005L16.7616 39.8412L16.7819 39.8676L16.9933 40.018L17.0237 40.0261L17.0481 40.018L17.2595 39.8676L17.2839 39.8351L17.292 39.8005L17.2574 38.9328C17.252 38.9111 17.2405 38.8989 17.2229 38.8962ZM17.7614 38.6666L17.735 38.6706L17.359 38.8596L17.3387 38.88L17.3326 38.9023L17.3692 39.7761L17.3794 39.8005L17.3956 39.8147L17.8041 40.0037C17.8298 40.0105 17.8495 40.0051 17.863 39.9875L17.8711 39.959L17.8021 38.7113C17.7953 38.6869 17.7817 38.672 17.7614 38.6666ZM16.3084 38.6706C16.2995 38.6652 16.2888 38.6635 16.2785 38.6657C16.2683 38.668 16.2594 38.6741 16.2536 38.6828L16.2414 38.7113L16.1723 39.959C16.1736 39.9834 16.1851 39.9997 16.2068 40.0078L16.2373 40.0037L16.6458 39.8147L16.6661 39.7985L16.6742 39.7761L16.7088 38.9023L16.7027 38.8779L16.6823 38.8576L16.3084 38.6706Z" fill="white"/>
<path fill-rule="evenodd" clip-rule="evenodd" d="M16.0182 20.3305L26.7947 31.1069C27.3665 31.6788 28.1421 32 28.9508 32C29.7595 32 30.5351 31.6788 31.1069 31.1069C31.6787 30.5351 32 29.7595 32 28.9508C32 28.1421 31.6787 27.3666 31.1069 26.7947L20.3264 16.0183L31.1049 5.24179C31.3879 4.95864 31.6124 4.62253 31.7655 4.25264C31.9186 3.88274 31.9973 3.48631 31.9972 3.08598C31.9972 2.68565 31.9182 2.28925 31.7649 1.91943C31.6116 1.54961 31.387 1.2136 31.1039 0.93059C30.8207 0.647579 30.4846 0.423109 30.1147 0.269996C29.7448 0.116883 29.3484 0.038125 28.9481 0.0382193C28.5477 0.0383137 28.1513 0.117258 27.7815 0.270546C27.4117 0.423833 27.0757 0.648462 26.7927 0.931606L16.0182 11.7081L5.24175 0.931606C4.9607 0.640341 4.62445 0.407965 4.25264 0.248038C3.88082 0.0881105 3.48087 0.00383443 3.07613 0.00012783C2.6714 -0.00357877 2.26997 0.0733576 1.89529 0.226448C1.5206 0.379539 1.18016 0.605717 0.893819 0.891787C0.60748 1.17786 0.38098 1.51809 0.227537 1.89263C0.0740928 2.26717 -0.00322209 2.66852 0.000102861 3.07326C0.00342781 3.478 0.0873257 3.87803 0.246902 4.25C0.406478 4.62197 0.638537 4.95843 0.929537 5.23976L11.7101 16.0183L0.93157 26.7968C0.64057 27.0781 0.408511 27.4146 0.248935 27.7865C0.0893587 28.1585 0.00545981 28.5585 0.00213486 28.9633C-0.00119009 29.368 0.0761248 29.7694 0.229569 30.1439C0.383012 30.5184 0.609512 30.8587 0.895851 31.1447C1.18219 31.4308 1.52263 31.657 1.89732 31.8101C2.27201 31.9632 2.67343 32.0401 3.07817 32.0364C3.4829 32.0327 3.88285 31.9484 4.25467 31.7885C4.62649 31.6286 4.96273 31.3962 5.24378 31.1049L16.0182 20.3305Z" fill="white"/>
</svg>
